<svg width="900" height="100" viewBox="0 0 900 100" fill="none" xmlns="http://www.w3.org/2000/svg">
<path d="M10.9392 13.464C11.6092 12.8426 12.4961 12.5066 13.4109 12.5277H89.9348C90.402 12.4905 90.8716 12.5549 91.3114 12.7164C91.7511 12.8778 92.1505 13.1325 92.4818 13.4629C92.8132 13.7932 93.0687 14.1913 93.2306 14.6297C93.3926 15.0681 93.4572 15.5362 93.4199 16.0019V18.6877C93.441 19.5997 93.104 20.4838 92.4807 21.1517C91.8122 21.7753 90.9243 22.1117 90.009 22.088H57.5061V82.5299C57.5826 83.0556 57.5362 83.5918 57.3707 84.0968C57.2051 84.6017 56.9248 85.0617 56.5516 85.4409C56.1784 85.8201 55.7224 86.1082 55.2192 86.2828C54.7159 86.4575 54.179 86.5139 53.6503 86.4477H49.7697C49.2499 86.4837 48.7281 86.415 48.2355 86.2457C47.7429 86.0764 47.2896 85.8099 46.9025 85.4621C46.5571 85.074 46.292 84.6217 46.1224 84.1312C45.9527 83.6407 45.8818 83.1217 45.9138 82.6038V22.1619H13.4851C13.026 22.1843 12.5673 22.1089 12.1396 21.9409C11.712 21.7728 11.3251 21.5159 11.0048 21.1873C10.6844 20.8586 10.438 20.4657 10.2818 20.0347C10.1256 19.6037 10.0632 19.1445 10.0989 18.6877V16.0019C10.0639 15.5445 10.1202 15.0848 10.2644 14.6492C10.4087 14.2136 10.638 13.8108 10.9392 13.464Z" fill="white"/>
<path d="M108.324 85.4621C107.974 85.077 107.706 84.6252 107.536 84.1339C107.366 83.6427 107.298 83.1222 107.336 82.6039V16.3715C107.272 15.8515 107.327 15.3237 107.498 14.8283C107.67 14.3329 107.952 13.8829 108.323 13.5124C108.695 13.1419 109.146 12.8607 109.643 12.6901C110.14 12.5195 110.67 12.4639 111.191 12.5277H165.569C170.432 12.3704 175.29 12.9944 179.954 14.3757C183.42 15.5097 186.303 17.9506 187.987 21.1763C190.015 25.6144 190.939 30.4744 190.681 35.3443V36.872C190.849 41.2761 190.152 45.6704 188.63 49.808C187.45 52.7635 185.297 55.2311 182.525 56.8058C179.263 58.4357 175.69 59.3514 172.045 59.4915L188.704 81.6675C189.28 82.3751 189.648 83.228 189.767 84.1315C189.831 84.4456 189.81 84.7711 189.706 85.0744C189.601 85.3776 189.418 85.6476 189.174 85.8564C188.565 86.3143 187.808 86.5335 187.048 86.4724H180.646C179.733 86.4908 178.827 86.2968 178.002 85.9056C177.202 85.4612 176.51 84.8471 175.975 84.1069L157.635 59.7133H118.854V82.6285C118.918 83.1486 118.862 83.6763 118.691 84.1717C118.52 84.6671 118.238 85.1171 117.866 85.4876C117.494 85.8581 117.043 86.1393 116.546 86.3099C116.049 86.4806 115.52 86.5361 114.998 86.4724H111.191C110.67 86.5095 110.146 86.4389 109.652 86.265C109.159 86.0912 108.707 85.8179 108.324 85.4621ZM172.589 49.0688C173.634 48.8103 174.613 48.3371 175.465 47.6794C176.316 47.0217 177.02 46.1941 177.532 45.2496C178.728 42.573 179.262 39.6493 179.089 36.7242V35.4922C179.274 32.5105 178.74 29.5279 177.532 26.7942C177.017 25.8624 176.31 25.0493 175.458 24.4082C174.607 23.7671 173.629 23.3123 172.589 23.0736C169.294 22.3558 165.923 22.0496 162.553 22.1619H118.854V50.0544H162.603C165.969 50.1712 169.335 49.8397 172.613 49.0688H172.589Z" fill="white"/>
<path d="M202.224 85.1418C201.985 84.6056 201.891 84.0162 201.951 83.4324C202.012 82.8486 202.225 82.291 202.57 81.8153L239.646 15.1642C240.067 14.3263 240.718 13.6254 241.524 13.1437C242.382 12.7125 243.333 12.5008 244.293 12.5277H255.959C256.919 12.5008 257.87 12.7125 258.727 13.1437C259.533 13.6254 260.185 14.3263 260.606 15.1642L297.681 81.8153C298.029 82.2901 298.243 82.8494 298.299 83.4347C298.356 84.0199 298.253 84.6095 298.003 85.1418C297.663 85.614 297.2 85.985 296.664 86.215C296.129 86.4451 295.54 86.5255 294.963 86.4477H290.242C289.281 86.4832 288.328 86.271 287.473 85.8317C286.667 85.3499 286.016 84.649 285.595 83.8112L276.82 68.3619H223.431L214.632 83.8112C214.233 84.6555 213.586 85.3598 212.778 85.8317C211.924 86.271 210.971 86.4832 210.01 86.4477H205.363C204.77 86.5388 204.163 86.4652 203.61 86.2348C203.056 86.0044 202.576 85.6262 202.224 85.1418ZM271.654 58.7277L251.09 22.1619H249.162L228.597 58.7277H271.654Z" fill="white"/>
<path d="M324.005 85.0432C321.318 84.1256 318.841 82.6834 316.719 80.8008C314.597 78.9181 312.872 76.6329 311.646 74.0785C308.961 68.7398 307.609 60.9289 307.593 50.6458V48.3296C307.593 38.0794 308.952 30.2439 311.646 24.897C312.877 22.3457 314.603 20.0629 316.724 18.1808C318.846 16.2987 321.32 14.8547 324.005 13.9322C331.279 11.7171 338.872 10.7261 346.473 11H359.993C367.054 10.8387 374.109 11.5337 381.002 13.0698C385.928 13.956 390.388 16.5333 393.607 20.3544C396.826 24.1755 398.601 28.9994 398.626 33.9892C398.718 34.5037 398.692 35.0324 398.551 35.5359C398.41 36.0393 398.157 36.5044 397.81 36.8967C397.412 37.2608 396.944 37.5404 396.434 37.7183C395.924 37.8962 395.383 37.9688 394.844 37.9315H390.988C390.483 37.9697 389.976 37.9066 389.496 37.7457C389.017 37.5849 388.574 37.3297 388.195 36.9952C387.483 36.228 387.07 35.2311 387.033 34.1862C386.904 31.0401 385.7 28.0324 383.622 25.6608C381.262 23.502 378.295 22.1173 375.12 21.6938C369.782 20.8619 364.381 20.4991 358.98 20.6096H347.486C341.571 20.3832 335.654 20.9972 329.912 22.433C328.054 23.0068 326.352 23.9952 324.934 25.323C323.517 26.6508 322.421 28.2831 321.731 30.096C319.77 36.0342 318.932 42.2836 319.259 48.5267V50.3994C318.933 56.6505 319.771 62.9079 321.731 68.8547C322.421 70.6703 323.516 72.3059 324.934 73.6377C326.351 74.9695 328.053 75.9628 329.912 76.5425C335.654 77.9783 341.571 78.5922 347.486 78.3658H358.98C364.373 78.4735 369.765 78.1107 375.095 77.2816C378.279 76.8629 381.256 75.478 383.622 73.3146C385.7 70.943 386.904 67.9353 387.033 64.7891C387.07 63.7443 387.483 62.7474 388.195 61.9802C388.574 61.6457 389.017 61.3905 389.496 61.2297C389.976 61.0688 390.483 61.0057 390.988 61.0439H394.844C395.383 61.0066 395.924 61.0791 396.434 61.2571C396.944 61.435 397.412 61.7145 397.81 62.0787C398.157 62.471 398.41 62.9362 398.551 63.4396C398.692 63.943 398.718 64.4717 398.626 64.9863C398.601 69.9761 396.826 74.7999 393.607 78.621C390.388 82.4421 385.928 85.0194 381.002 85.9056C374.109 87.4417 367.054 88.1367 359.993 87.9754H346.473C338.872 88.2493 331.279 87.2583 324.005 85.0432Z" fill="white"/>
<path d="M484.839 86.1274C484.029 85.9001 483.273 85.5148 482.614 84.9939L438.544 54.4157H425.617V82.727C425.649 83.2449 425.578 83.7639 425.408 84.2544C425.238 84.7449 424.973 85.1971 424.628 85.5853C424.237 85.9349 423.78 86.2025 423.283 86.3718C422.786 86.5412 422.26 86.6088 421.736 86.5709H417.93C417.408 86.6346 416.879 86.5791 416.382 86.4085C415.885 86.2379 415.433 85.9567 415.062 85.5862C414.69 85.2157 414.408 84.7657 414.237 84.2703C414.066 83.7749 414.01 83.2471 414.074 82.727V16.3715C414.01 15.8515 414.066 15.3237 414.237 14.8283C414.408 14.3329 414.69 13.8829 415.062 13.5124C415.433 13.1419 415.885 12.8607 416.382 12.6901C416.879 12.5195 417.408 12.4639 417.93 12.5277H421.786C422.309 12.4897 422.835 12.5574 423.332 12.7268C423.829 12.8961 424.287 13.1636 424.677 13.5133C425.023 13.9014 425.288 14.3537 425.458 14.8442C425.627 15.3346 425.698 15.8537 425.666 16.3715V44.6829H438.939L480.488 14.1539C481.177 13.627 481.944 13.2112 482.762 12.9219C483.558 12.6518 484.394 12.5185 485.234 12.5277H492.081C493.018 12.4587 493.951 12.7108 494.725 13.2422C495.003 13.4523 495.211 13.7412 495.321 14.071C495.431 14.4007 495.439 14.756 495.343 15.0902C495.047 15.976 494.453 16.733 493.663 17.2339L450.408 49.4877L495.64 81.7907C496.472 82.2827 497.115 83.0371 497.469 83.9344C497.579 84.2593 497.584 84.6105 497.481 84.938C497.379 85.2655 497.176 85.5524 496.901 85.7578C496.106 86.2842 495.157 86.5273 494.206 86.4477H487.385C486.525 86.4648 485.667 86.3569 484.839 86.1274Z" fill="white"/>
<path d="M510.89 85.4621C510.54 85.077 510.272 84.6252 510.102 84.1339C509.932 83.6427 509.864 83.1222 509.902 82.6039V16.3715C509.838 15.8515 509.893 15.3237 510.065 14.8283C510.236 14.3329 510.518 13.8829 510.89 13.5124C511.261 13.1419 511.713 12.8607 512.21 12.6901C512.707 12.5195 513.236 12.4639 513.758 12.5277H517.613C518.135 12.4639 518.665 12.5195 519.161 12.6901C519.658 12.8607 520.11 13.1419 520.481 13.5124C520.853 13.8829 521.135 14.3329 521.306 14.8283C521.478 15.3237 521.533 15.8515 521.469 16.3715V76.8134H574.388C574.856 76.7763 575.325 76.8407 575.765 77.0022C576.205 77.1636 576.604 77.4183 576.935 77.7486C577.267 78.079 577.522 78.4771 577.684 78.9155C577.846 79.3538 577.911 79.822 577.873 80.2877V82.9734C577.897 83.8859 577.56 84.771 576.934 85.4374C576.264 86.0588 575.377 86.3948 574.463 86.3738H513.758C513.243 86.4241 512.723 86.3692 512.23 86.2124C511.737 86.0557 511.281 85.8004 510.89 85.4621Z" fill="white"/>
<path d="M584.325 85.1418C584.085 84.6056 583.991 84.0162 584.052 83.4324C584.112 82.8486 584.326 82.291 584.671 81.8153L621.746 15.1642C622.167 14.3263 622.819 13.6254 623.625 13.1437C624.482 12.7125 625.433 12.5008 626.393 12.5277H638.059C639.019 12.5008 639.971 12.7125 640.828 13.1437C641.634 13.6254 642.285 14.3263 642.706 15.1642L679.782 81.8153C680.13 82.2901 680.343 82.8494 680.4 83.4347C680.456 84.0199 680.354 84.6095 680.103 85.1418C679.763 85.614 679.3 85.985 678.765 86.215C678.229 86.4451 677.641 86.5255 677.063 86.4477H672.342C671.381 86.4832 670.428 86.271 669.574 85.8317C668.766 85.3598 668.119 84.6555 667.72 83.8112L658.921 68.3619H605.532L596.733 83.8112C596.333 84.6555 595.687 85.3598 594.879 85.8317C594.025 86.271 593.071 86.4832 592.11 86.4477H587.389C586.808 86.5221 586.218 86.4403 585.679 86.2107C585.14 85.981 584.672 85.612 584.325 85.1418ZM653.755 58.7277L633.19 22.1619H631.262L610.722 58.7277H653.755Z" fill="white"/>
<path d="M692.882 85.4621C692.532 85.077 692.264 84.6252 692.094 84.1339C691.924 83.6427 691.856 83.1222 691.893 82.6039V16.3715C691.829 15.8515 691.885 15.3237 692.056 14.8283C692.227 14.3329 692.509 13.8829 692.881 13.5124C693.253 13.1419 693.704 12.8607 694.201 12.6901C694.698 12.5195 695.227 12.4639 695.749 12.5277H752.598C757.973 12.3734 763.344 12.9453 768.565 14.2279C772.087 15.1014 775.165 17.2316 777.216 20.2154C779.302 23.9126 780.279 28.1284 780.034 32.3629V33.8906C780.23 37.3964 779.369 40.8804 777.562 43.8944C775.688 46.5623 772.974 48.5307 769.851 49.4877C773.7 50.1371 777.227 52.0337 779.886 54.8839C782.211 57.7636 783.398 61.3923 783.223 65.0848V66.7357C783.468 70.9702 782.49 75.186 780.405 78.8832C778.353 81.8669 775.275 83.9972 771.754 84.8707C766.533 86.1533 761.162 86.7252 755.787 86.5709H695.749C695.22 86.592 694.693 86.5045 694.2 86.3138C693.706 86.123 693.258 85.8331 692.882 85.4621ZM761.719 43.9437C763.748 43.5558 765.557 42.4212 766.786 40.7651C767.967 38.7997 768.519 36.5218 768.368 34.2355V32.9789C768.535 30.5534 767.994 28.1315 766.81 26.0058C766.232 25.1919 765.497 24.5006 764.648 23.9719C763.8 23.4432 762.854 23.0876 761.867 22.9258C758.607 22.3333 755.293 22.0774 751.98 22.1619H703.485V44.8554H751.857C755.169 44.9542 758.481 44.6481 761.719 43.9437ZM764.932 75.9757C765.921 75.8095 766.867 75.4496 767.715 74.9167C768.564 74.3838 769.298 73.6885 769.875 72.871C771.059 70.7453 771.6 68.3234 771.433 65.8979V64.6413C771.593 62.3183 771.051 60.0007 769.875 57.9885C768.674 56.3792 766.909 55.2796 764.932 54.9085C761.678 54.2626 758.362 53.9816 755.045 54.0707H703.485V76.7642H754.946C758.292 76.8786 761.64 76.6307 764.932 76.0249V75.9757Z" fill="white"/>
<path d="M886.292 13.1929C885.559 12.7172 884.694 12.4844 883.821 12.5277H863.849C862.945 12.5054 862.046 12.6647 861.205 12.9958C860.389 13.3388 859.656 13.8512 859.054 14.4989L844.274 29.7757L859.301 44.7568L885.724 17.2092C886.382 16.6079 886.832 15.8143 887.009 14.9424C887.062 14.6133 887.022 14.2763 886.896 13.9679C886.77 13.6595 886.561 13.3914 886.292 13.1929ZM822.745 52.2473L794.469 81.8153C793.808 82.4345 793.322 83.2164 793.06 84.0822C792.972 84.3947 792.971 84.7254 793.058 85.0382C793.145 85.351 793.317 85.634 793.554 85.8563C794.185 86.349 794.98 86.5865 795.779 86.5216H816.442C817.338 86.5439 818.23 86.3846 819.062 86.0534C819.885 85.7226 820.62 85.2085 821.213 84.5504L837.773 67.3024L822.745 52.2473Z" fill="#DC2626"/>
<path d="M889.481 85.7824C888.848 86.2708 888.055 86.5078 887.257 86.4477H866.593C865.89 86.4533 865.19 86.3536 864.517 86.152L863.998 85.9548C863.18 85.6139 862.44 85.111 861.823 84.4765L841.159 63.6803L826.329 48.6252L795.161 17.2339C794.716 16.8352 794.348 16.3593 794.073 15.8294C793.872 15.5815 793.721 15.297 793.628 14.9917C793.535 14.6776 793.529 14.3441 793.612 14.0271C793.695 13.7101 793.863 13.4217 794.098 13.1929C794.732 12.7046 795.524 12.4676 796.323 12.5277H816.986C817.882 12.5026 818.774 12.662 819.606 12.9958C820.388 13.3375 821.094 13.8318 821.682 14.4496L840.591 33.4717L855.421 48.5267L881.3 74.5958L888.344 81.6922C889.011 82.2922 889.491 83.0704 889.728 83.9344C889.86 84.2355 889.907 84.567 889.864 84.8928C889.82 85.2186 889.688 85.5263 889.481 85.7824Z" fill="#DC2626"/>
</svg>
