<svg width="512" height="512" viewBox="0 0 512 512" fill="none" xmlns="http://www.w3.org/2000/svg">
<rect width="512" height="512" fill="#100C08"/>
<path d="M467.358 85.1713C463.911 82.9344 459.844 81.8395 455.736 82.0431H361.83C357.579 81.9387 353.35 82.6873 349.395 84.2444C345.559 85.857 342.112 88.2664 339.284 91.3118L269.784 163.144L340.446 233.585L464.685 104.056C467.778 101.228 469.893 97.4971 470.728 93.3971C470.974 91.8499 470.79 90.2652 470.196 88.815C469.601 87.3648 468.62 86.1046 467.358 85.1713ZM168.556 268.806L35.6008 407.835C32.4921 410.747 30.2072 414.423 28.9761 418.494C28.5608 419.964 28.5581 421.518 28.968 422.989C29.3778 424.46 30.1847 425.791 31.3007 426.836C34.2688 429.153 38.0033 430.269 41.7604 429.964H138.92C143.134 430.069 147.325 429.32 151.24 427.763C155.107 426.208 158.566 423.79 161.351 420.696L239.218 339.595L168.556 268.806Z" fill="#DC2626"/>
<path d="M482.351 426.489C479.372 428.785 475.646 429.899 471.891 429.617H374.731C371.425 429.643 368.135 429.175 364.969 428.226L362.528 427.299C358.682 425.696 355.203 423.331 352.301 420.348L255.141 322.564L185.409 251.775L38.8553 104.172C36.764 102.297 35.0313 100.06 33.7416 97.568C32.7951 96.4023 32.0847 95.0645 31.6497 93.6289C31.2104 92.1523 31.184 90.5841 31.5731 89.0936C31.9623 87.6031 32.7523 86.247 33.8579 85.1713C36.8365 82.875 40.563 81.7605 44.3177 82.0431H141.478C145.692 81.9253 149.886 82.6746 153.797 84.2444C157.476 85.8508 160.795 88.175 163.559 91.08L252.468 180.522L322.2 251.311L443.882 373.889L477.005 407.256C480.141 410.077 482.4 413.737 483.513 417.799C484.134 419.215 484.354 420.774 484.149 422.305C483.944 423.837 483.322 425.284 482.351 426.489Z" fill="#DC2626"/>
</svg>
