<svg xmlns="http://www.w3.org/2000/svg" viewBox="0 0 200 200" fill="none">
  <path d="M 81.18 141.48 L 70.05 132.81 L 53.58 119.54 L 52.63 118.77 L 52.22 117.72 L 52.29 117.26 L 52.56 116.83 L 53.12 115.76 L 54.05 114.46 L 54.63 112.80 L 54.96 110.75 L 55.02 109.25 L 54.44 106.33 L 53.72 104.84 L 52.59 103.29 L 51.27 102.04 L 48.34 99.73 L 44.86 97.22 L 39.96 93.47 L 33.98 88.44 L 31.59 86.42 L 25.22 80.10 L 22.06 76.77 L 18.79 72.71 L 12.49 64.01 L 10.94 61.57 L 10.00 59.74 L 10.12 58.73 L 10.66 58.00 L 11.98 57.48 L 16.42 56.87 L 24.82 55.51 L 25.80 55.20 L 26.41 54.89 L 26.83 54.43 L 27.44 52.99 L 27.56 51.48 L 26.99 38.53 L 26.79 33.78 L 26.94 33.38 L 28.72 31.73 L 30.35 30.76 L 42.84 23.64 L 45.61 22.38 L 58.51 18.22 L 63.38 16.83 L 67.79 14.73 L 71.14 13.12 L 72.64 12.92 L 73.83 12.90 L 74.93 13.42 L 76.39 14.78 L 78.15 16.00 L 80.56 17.35 L 83.62 18.25 L 87.59 18.64 L 91.18 18.77 L 94.22 19.13 L 97.61 20.06 L 100.61 21.19 L 103.92 23.12 L 106.15 24.70 L 108.37 26.99 L 110.45 29.83 L 111.62 32.73 L 112.35 34.97 L 112.72 36.85 L 115.74 49.89 L 115.77 51.52 L 115.44 53.47 L 114.63 55.48 L 113.68 57.18 L 111.98 59.09 L 110.42 60.60 L 108.70 62.43 L 107.83 63.77 L 107.08 65.28 L 106.51 67.00 L 103.09 81.34 L 102.82 83.09 L 102.68 85.17 L 102.68 87.07 L 102.89 90.53 L 103.39 93.21 L 104.32 96.29 L 105.47 99.26 L 106.96 101.82 L 108.51 104.20 L 111.09 107.39 L 112.82 109.40 L 116.28 112.30 L 127.71 120.33 L 129.52 121.44 L 131.21 122.17 L 132.46 122.64 L 134.88 123.22 L 137.20 123.38 L 140.02 123.29 L 142.57 123.28 L 145.04 123.20 L 147.14 123.25 L 148.94 123.61 L 150.73 124.29 L 151.96 124.84 L 154.14 126.37 L 166.77 134.87 L 171.48 137.98 L 173.77 140.16 L 175.48 141.72 L 177.34 144.05 L 179.22 147.51 L 181.11 151.84 L 186.09 165.48 L 189.08 174.14 L 189.65 176.55 L 189.97 177.76 L 190.00 178.51 L 189.21 178.83 L 186.87 179.55 L 175.62 183.13 L 164.04 186.78 L 163.14 186.97 L 161.70 187.10 L 159.93 187.00 L 158.12 186.41 L 156.28 185.43 L 155.20 184.64 L 154.16 183.36 L 147.29 173.35 L 143.13 168.04 L 142.57 167.32 L 141.99 166.91 L 141.41 166.73 L 140.42 166.70 L 139.72 167.02 L 132.25 173.69 L 131.21 174.51 L 130.10 175.03 L 128.70 175.46 L 127.45 175.69 L 126.33 175.68 L 125.00 175.48 L 123.15 174.96 L 121.78 174.20 L 121.25 173.78 L 81.18 141.48 Z" stroke="currentColor" stroke-width="3" stroke-linecap="round" stroke-linejoin="round"/>
</svg>