<svg xmlns="http://www.w3.org/2000/svg" viewBox="0 0 200 200" fill="none">
  <path d="M 46.10 128.24 L 62.36 139.45 L 66.85 142.17 L 70.32 143.96 L 71.61 144.49 L 72.11 144.62 L 72.67 144.53 L 73.17 144.27 L 73.51 143.82 L 73.68 143.42 L 73.63 142.92 L 70.09 134.13 L 68.52 130.07 L 68.25 128.82 L 68.19 127.75 L 68.25 126.50 L 68.52 125.34 L 69.02 123.87 L 69.81 122.62 L 70.65 121.50 L 71.83 120.33 L 73.12 119.53 L 74.86 118.59 L 84.33 113.51 L 88.20 111.40 L 89.04 110.69 L 89.77 109.84 L 90.38 109.13 L 90.89 108.15 L 91.28 107.30 L 92.30 104.85 L 92.97 104.04 L 93.81 103.11 L 94.93 102.48 L 95.83 102.07 L 98.06 101.32 L 99.81 100.56 L 100.81 99.89 L 101.43 99.22 L 101.99 98.32 L 102.21 97.25 L 102.55 95.43 L 102.72 94.26 L 103.05 92.97 L 103.51 92.03 L 104.07 91.13 L 104.80 90.24 L 105.58 89.44 L 106.76 88.55 L 108.10 87.70 L 109.56 86.99 L 111.12 86.41 L 112.48 86.13 L 113.60 86.10 L 114.50 86.13 L 115.95 86.49 L 125.25 90.20 L 126.15 90.51 L 127.10 90.51 L 127.83 90.24 L 129.69 89.26 L 131.87 87.74 L 133.44 86.36 L 135.01 84.53 L 136.18 83.33 L 137.25 82.61 L 138.43 82.17 L 139.33 81.99 L 140.62 81.99 L 142.08 82.35 L 143.19 82.88 L 144.09 83.64 L 144.60 84.17 L 145.10 84.85 L 145.55 85.60 L 146.22 86.23 L 147.01 86.49 L 147.79 86.49 L 164.55 83.28 L 165.62 82.97 L 166.29 82.66 L 166.80 82.25 L 176.61 71.95 L 185.24 62.92 L 188.54 59.26 L 189.90 57.12 L 190.00 56.58 L 189.84 56.09 L 189.44 55.83 L 188.94 55.51 L 188.38 55.38 L 187.76 55.42 L 186.92 55.60 L 168.98 60.56 L 156.48 63.59 L 142.69 66.49 L 126.21 69.35 L 115.90 70.83 L 106.36 72.03 L 78.28 74.71 L 75.14 75.20 L 74.75 75.42 L 74.57 75.87 L 74.63 76.23 L 75.03 76.72 L 76.88 78.50 L 83.27 86.10 L 86.07 90.03 L 86.24 90.60 L 86.07 91.45 L 85.67 92.03 L 84.95 92.48 L 84.33 92.61 L 83.16 92.75 L 77.95 92.39 L 77.43 92.17 L 76.99 91.81 L 76.54 91.36 L 76.15 90.74 L 75.09 88.24 L 74.63 87.25 L 73.90 86.36 L 70.48 83.33 L 69.98 82.97 L 69.37 82.74 L 68.75 82.66 L 65.39 82.39 L 64.72 82.43 L 64.32 82.66 L 63.93 83.06 L 63.76 83.60 L 63.99 84.22 L 70.48 93.91 L 73.12 98.19 L 73.34 99.36 L 73.29 100.51 L 73.07 101.45 L 72.78 102.39 L 72.06 104.13 L 71.04 106.05 L 70.37 106.81 L 69.25 107.52 L 67.96 108.06 L 62.64 110.15 L 61.57 110.38 L 60.51 110.43 L 58.55 110.30 L 56.69 110.07 L 54.90 109.58 L 52.94 108.90 L 51.20 108.01 L 50.03 107.25 L 49.24 106.10 L 43.13 98.68 L 38.37 93.50 L 37.75 92.97 L 37.02 92.70 L 36.06 92.53 L 35.22 92.57 L 34.05 92.84 L 32.65 93.24 L 31.47 93.64 L 11.79 101.10 L 10.67 101.76 L 10.23 102.39 L 10.00 103.06 L 10.23 103.55 L 10.67 104.00 L 11.23 104.44 L 21.55 111.63 L 46.10 128.24 Z" stroke="currentColor" stroke-width="3" stroke-linecap="round" stroke-linejoin="round"/>
</svg>