<svg xmlns="http://www.w3.org/2000/svg" viewBox="0 0 200 200" fill="none">
  <path d="M 36.77 95.32 L 38.34 44.80 L 39.82 11.72 L 40.52 10.23 L 41.99 10.00 L 43.57 10.38 L 44.75 11.17 L 52.35 18.08 L 54.42 18.78 L 56.69 18.63 L 69.91 14.78 L 73.07 14.47 L 75.94 14.63 L 162.65 29.72 L 165.61 30.50 L 167.20 31.99 L 167.58 33.89 L 167.28 35.69 L 166.30 37.72 L 164.43 39.77 L 162.26 41.42 L 159.30 43.47 L 148.85 50.45 L 140.45 58.30 L 138.38 60.12 L 136.71 62.70 L 132.96 70.34 L 131.68 71.99 L 129.69 73.16 L 127.73 74.11 L 124.58 74.42 L 115.09 73.01 L 112.53 73.09 L 109.88 73.56 L 107.69 74.57 L 105.04 76.77 L 85.79 98.69 L 83.92 100.19 L 81.26 100.58 L 79.59 99.41 L 78.99 97.04 L 79.09 93.44 L 83.72 68.61 L 86.39 53.05 L 86.79 49.99 L 86.29 47.15 L 85.61 45.04 L 84.22 42.92 L 76.32 36.79 L 75.24 36.32 L 74.06 36.62 L 73.37 37.72 L 70.51 56.90 L 69.72 69.71 L 68.34 92.72 L 67.36 116.78 L 66.36 138.70 L 66.76 142.30 L 68.34 144.43 L 70.81 145.60 L 74.26 146.23 L 77.81 146.00 L 82.24 145.21 L 86.79 143.25 L 90.62 140.81 L 94.37 137.36 L 96.66 133.98 L 100.89 124.08 L 103.26 119.91 L 105.53 117.48 L 108.49 115.28 L 112.04 113.31 L 116.98 112.21 L 122.39 112.13 L 126.24 112.93 L 131.38 115.13 L 144.90 121.16 L 147.66 122.98 L 150.03 125.09 L 151.21 127.06 L 152.68 129.26 L 152.68 131.23 L 151.50 133.26 L 149.13 135.31 L 145.88 137.51 L 43.47 189.05 L 41.60 189.92 L 38.64 190.00 L 37.35 188.90 L 32.82 180.25 L 32.42 176.80 L 32.52 170.28 L 33.80 134.53 L 36.77 95.32 Z" stroke="currentColor" stroke-width="3" stroke-linecap="round" stroke-linejoin="round"/>
</svg>