<svg xmlns="http://www.w3.org/2000/svg" viewBox="0 0 200 200" fill="none">
  <path d="M 175.59 75.56 L 188.77 71.26 L 189.47 70.83 L 189.91 70.21 L 190.00 69.61 L 189.78 68.74 L 187.10 63.46 L 182.57 56.77 L 178.84 50.30 L 178.23 49.99 L 177.44 49.89 L 164.83 53.73 L 149.42 58.28 L 128.39 65.48 L 110.25 71.81 L 109.07 72.76 L 109.07 74.05 L 114.99 85.77 L 115.04 86.68 L 114.12 87.48 L 103.80 91.19 L 97.96 93.64 L 90.10 97.48 L 89.61 97.97 L 89.79 98.68 L 91.10 100.87 L 91.06 101.50 L 90.40 101.99 L 87.42 103.99 L 69.50 114.55 L 66.47 116.64 L 65.20 117.31 L 63.92 117.28 L 62.87 116.40 L 58.13 105.77 L 57.56 105.32 L 56.68 105.17 L 55.54 105.17 L 53.82 104.37 L 52.77 104.17 L 51.67 104.20 L 50.62 104.27 L 49.48 103.92 L 48.91 103.25 L 47.90 100.74 L 47.41 100.28 L 46.71 99.93 L 45.66 99.89 L 38.10 101.89 L 26.07 106.37 L 18.12 110.00 L 16.54 110.98 L 15.31 112.24 L 14.17 114.03 L 10.27 124.13 L 10.00 125.50 L 11.28 139.45 L 11.67 140.33 L 12.63 141.19 L 28.93 147.70 L 33.50 149.24 L 36.00 149.94 L 37.40 150.11 L 39.02 149.90 L 40.17 149.31 L 40.92 148.68 L 45.83 141.76 L 46.98 140.15 L 48.29 138.86 L 62.30 129.13 L 63.44 127.91 L 64.01 126.72 L 65.24 120.32 L 65.77 119.06 L 66.82 117.87 L 68.05 117.03 L 88.21 105.11 L 90.93 103.74 L 94.01 102.48 L 96.86 101.44 L 105.95 98.53 L 114.03 95.66 L 133.74 89.23 L 141.74 86.46 L 162.20 79.82 L 175.59 75.56 Z" stroke="currentColor" stroke-width="3" stroke-linecap="round" stroke-linejoin="round"/>
</svg>