<svg xmlns="http://www.w3.org/2000/svg" viewBox="0 0 200 200" fill="none">
  <path d="M 151.80 91.19 L 128.49 118.89 L 115.60 134.42 L 102.19 150.25 L 88.16 167.12 L 83.37 172.82 L 81.84 174.10 L 80.47 175.00 L 79.28 175.41 L 77.16 175.61 L 75.23 175.52 L 73.79 175.24 L 72.40 174.68 L 67.57 172.37 L 66.04 171.85 L 63.29 171.40 L 61.07 171.40 L 57.91 171.91 L 56.11 172.76 L 42.69 180.26 L 40.82 180.96 L 38.88 181.50 L 36.29 182.15 L 33.84 182.43 L 31.71 182.43 L 29.38 182.34 L 26.79 182.09 L 24.28 181.48 L 21.25 180.36 L 19.69 179.50 L 18.25 178.56 L 16.96 177.69 L 13.53 174.32 L 11.84 171.71 L 10.62 168.81 L 10.31 166.76 L 10.00 164.33 L 10.08 161.76 L 10.59 159.02 L 12.04 154.69 L 13.64 151.19 L 15.35 148.44 L 17.19 146.28 L 40.51 118.53 L 41.91 117.55 L 43.86 116.69 L 47.50 116.02 L 49.81 116.22 L 51.68 116.64 L 53.83 117.55 L 56.27 119.01 L 57.83 120.34 L 59.70 123.15 L 60.37 125.27 L 60.56 128.56 L 60.40 130.53 L 59.75 132.75 L 58.48 134.92 L 56.14 138.27 L 39.21 158.07 L 38.74 159.41 L 38.71 160.59 L 39.13 161.99 L 39.91 162.96 L 40.77 163.77 L 42.11 164.47 L 43.78 164.91 L 45.09 165.08 L 47.23 164.77 L 48.22 164.47 L 73.67 155.86 L 77.19 154.22 L 80.70 152.21 L 84.23 149.71 L 86.73 147.45 L 96.86 135.56 L 97.95 133.78 L 98.42 132.54 L 97.99 130.59 L 96.70 128.85 L 94.70 127.46 L 90.08 125.41 L 87.57 123.88 L 86.18 122.71 L 84.81 121.21 L 84.04 120.20 L 77.68 108.84 L 70.45 96.04 L 69.88 93.84 L 69.88 91.60 L 70.17 89.86 L 70.64 88.20 L 72.06 86.26 L 73.15 84.95 L 75.49 83.03 L 77.82 81.67 L 158.81 50.59 L 161.65 49.39 L 163.13 48.20 L 163.85 47.06 L 164.03 45.69 L 163.46 44.16 L 162.50 42.94 L 161.13 41.94 L 159.13 40.80 L 155.90 39.74 L 153.91 39.38 L 151.14 39.10 L 148.77 39.02 L 146.38 39.13 L 143.78 39.63 L 140.16 40.94 L 137.68 42.02 L 134.21 44.30 L 130.78 46.14 L 128.41 46.94 L 124.74 47.14 L 122.56 46.78 L 119.95 45.78 L 117.86 44.47 L 116.56 42.94 L 115.52 41.22 L 115.19 39.34 L 115.10 38.45 L 115.82 35.95 L 117.09 34.17 L 119.09 32.72 L 138.40 20.83 L 140.30 19.63 L 142.70 18.57 L 144.89 17.99 L 147.93 17.63 L 150.93 17.57 L 153.67 17.99 L 155.92 18.71 L 160.48 20.88 L 165.56 23.33 L 169.96 25.60 L 172.80 26.84 L 182.40 31.39 L 184.71 32.61 L 186.18 33.77 L 187.50 35.11 L 188.58 36.65 L 189.47 38.71 L 189.97 40.63 L 190.00 43.39 L 189.47 45.88 L 186.80 49.82 L 151.80 91.19 Z" stroke="currentColor" stroke-width="3" stroke-linecap="round" stroke-linejoin="round"/>
</svg>