<svg xmlns="http://www.w3.org/2000/svg" viewBox="0 0 200 200" fill="none">
  <path d="M 54.89 134.81 L 21.34 116.72 L 11.42 111.49 L 10.53 110.48 L 10.00 109.47 L 10.15 108.34 L 10.82 107.45 L 11.79 106.86 L 13.06 106.45 L 14.93 106.26 L 17.69 106.26 L 25.37 106.38 L 30.52 106.98 L 35.22 107.92 L 40.14 109.23 L 43.88 110.66 L 46.70 111.97 L 74.08 126.58 L 76.09 127.29 L 78.03 127.59 L 79.97 127.59 L 81.54 127.23 L 83.26 126.81 L 84.59 126.11 L 85.72 125.27 L 86.46 124.51 L 87.13 123.43 L 87.35 121.95 L 87.28 121.12 L 86.69 119.98 L 86.17 118.86 L 78.33 109.89 L 77.51 108.22 L 77.36 106.91 L 77.81 105.79 L 78.41 104.37 L 79.15 103.06 L 87.81 91.41 L 103.17 70.44 L 105.93 67.11 L 109.14 64.20 L 113.16 61.05 L 113.98 60.17 L 114.59 59.28 L 114.73 58.27 L 114.28 57.13 L 107.28 39.31 L 107.13 37.95 L 107.34 36.64 L 107.87 35.33 L 108.69 34.08 L 110.18 33.07 L 111.97 32.18 L 113.83 31.54 L 115.70 31.30 L 118.02 31.35 L 120.25 31.71 L 122.94 32.48 L 125.99 33.79 L 128.16 34.80 L 130.69 36.05 L 133.38 37.47 L 136.74 39.84 L 151.06 50.30 L 151.73 51.31 L 151.95 52.09 L 151.88 52.92 L 151.13 53.63 L 149.94 54.40 L 148.97 55.05 L 148.60 55.65 L 148.68 56.72 L 149.04 57.90 L 154.26 71.16 L 155.38 72.94 L 156.20 73.65 L 157.02 74.30 L 158.14 74.90 L 159.49 75.19 L 162.02 75.55 L 172.84 76.62 L 175.08 77.21 L 176.49 77.86 L 177.69 78.52 L 178.73 79.65 L 179.10 80.66 L 179.55 81.85 L 179.55 83.16 L 179.17 84.58 L 176.49 97.35 L 176.41 99.62 L 176.64 101.04 L 177.23 102.51 L 178.07 103.95 L 188.65 115.36 L 189.70 117.07 L 189.92 118.27 L 190.00 119.39 L 189.77 120.57 L 189.40 121.77 L 188.65 122.84 L 187.45 123.90 L 169.26 137.69 L 153.07 150.34 L 147.56 154.50 L 146.21 155.03 L 144.95 155.15 L 143.75 155.03 L 142.70 154.61 L 141.66 153.97 L 130.62 145.53 L 128.83 144.34 L 120.40 139.70 L 118.91 139.17 L 117.42 138.76 L 115.62 138.58 L 114.06 138.70 L 111.97 139.35 L 110.71 140.30 L 109.81 141.32 L 109.28 142.20 L 109.14 143.40 L 109.36 144.58 L 110.10 145.70 L 111.07 146.60 L 127.71 155.63 L 130.77 157.52 L 131.66 158.54 L 132.33 159.97 L 132.63 161.63 L 132.41 163.17 L 131.66 164.48 L 130.77 165.73 L 129.36 166.80 L 127.04 167.81 L 124.66 168.46 L 122.05 168.70 L 119.29 168.46 L 116.82 167.81 L 114.51 166.74 L 54.89 134.81 Z" stroke="currentColor" stroke-width="3" stroke-linecap="round" stroke-linejoin="round"/>
</svg>