<svg xmlns="http://www.w3.org/2000/svg" viewBox="0 0 200 200" fill="none">
  <path d="M 124.19 74.51 L 121.00 74.47 L 101.09 71.42 L 93.98 70.88 L 89.84 70.85 L 69.06 72.18 L 58.86 73.91 L 57.59 74.51 L 56.98 75.04 L 56.80 75.54 L 56.05 77.87 L 55.50 78.61 L 54.23 79.24 L 44.84 82.66 L 43.44 83.78 L 28.29 110.63 L 28.11 111.35 L 28.14 112.22 L 29.74 116.39 L 29.74 117.06 L 29.22 117.87 L 28.64 118.42 L 10.70 129.39 L 10.19 130.02 L 10.00 130.77 L 10.23 131.57 L 10.89 132.53 L 11.74 133.05 L 12.72 133.26 L 14.21 133.25 L 43.13 130.56 L 46.42 130.40 L 51.29 130.59 L 54.82 130.96 L 59.62 131.61 L 64.55 132.26 L 67.10 132.62 L 68.71 132.38 L 69.93 131.95 L 71.51 130.85 L 73.10 128.79 L 75.54 124.44 L 76.11 122.54 L 76.28 120.37 L 75.81 118.17 L 72.28 106.23 L 72.33 105.48 L 72.83 104.62 L 74.88 102.31 L 77.57 99.32 L 78.36 99.03 L 79.40 98.96 L 80.12 99.18 L 84.10 100.33 L 85.32 100.44 L 127.02 100.25 L 127.56 100.41 L 128.08 101.30 L 128.47 102.08 L 128.92 102.27 L 129.80 102.29 L 146.45 97.38 L 148.56 96.54 L 155.49 93.12 L 159.46 90.53 L 163.31 87.77 L 172.70 81.18 L 174.59 80.22 L 176.66 79.50 L 188.94 75.60 L 189.87 74.95 L 190.00 73.93 L 189.75 73.12 L 186.05 67.52 L 185.18 66.99 L 184.23 66.78 L 182.90 66.74 L 181.83 66.93 L 165.32 71.42 L 159.46 73.03 L 156.27 73.86 L 153.49 74.31 L 151.61 74.55 L 124.19 74.51 Z" stroke="currentColor" stroke-width="3" stroke-linecap="round" stroke-linejoin="round"/>
</svg>