<svg xmlns="http://www.w3.org/2000/svg" viewBox="0 0 200 200" fill="none">
  <path d="M 49.96 139.20 L 60.96 178.18 L 62.12 182.29 L 63.29 184.65 L 65.92 188.24 L 67.28 189.26 L 69.23 189.98 L 71.16 190.00 L 73.27 189.60 L 74.38 189.06 L 77.82 186.16 L 81.16 182.76 L 82.48 181.87 L 84.20 181.31 L 85.94 181.22 L 88.46 181.96 L 93.80 184.96 L 98.04 186.56 L 101.19 187.31 L 104.08 187.65 L 106.71 187.78 L 110.59 187.36 L 113.55 186.77 L 117.20 185.57 L 120.61 183.76 L 123.99 181.33 L 126.73 178.70 L 128.88 175.89 L 130.49 173.25 L 131.82 170.29 L 137.06 154.46 L 139.27 146.52 L 143.05 133.04 L 147.67 115.81 L 155.79 87.59 L 158.71 77.41 L 160.77 70.27 L 161.73 66.94 L 162.09 64.84 L 161.86 62.88 L 161.33 61.54 L 160.16 59.96 L 158.06 58.62 L 155.62 57.68 L 152.08 57.01 L 141.52 55.11 L 137.40 54.68 L 134.84 54.86 L 131.71 55.26 L 128.75 56.06 L 126.13 57.47 L 123.65 58.81 L 121.17 60.68 L 118.78 63.11 L 115.52 66.91 L 104.78 80.18 L 98.48 88.35 L 93.12 95.34 L 87.23 102.41 L 84.14 106.34 L 81.75 109.30 L 80.09 110.98 L 78.24 112.03 L 75.60 112.89 L 72.70 113.23 L 68.35 113.14 L 65.45 112.70 L 63.13 112.03 L 61.07 111.17 L 57.54 109.41 L 55.78 107.98 L 54.62 106.57 L 53.49 104.53 L 52.63 101.76 L 51.56 97.67 L 50.68 93.93 L 49.50 87.05 L 49.27 84.21 L 49.33 81.32 L 50.07 79.13 L 51.28 78.02 L 52.12 77.62 L 53.17 77.29 L 54.60 77.14 L 56.11 77.49 L 57.69 78.06 L 61.97 81.04 L 63.69 81.97 L 65.03 82.49 L 66.46 82.76 L 67.78 82.85 L 69.23 82.68 L 71.21 82.01 L 73.56 80.24 L 74.88 78.44 L 75.59 76.47 L 75.70 74.79 L 75.41 72.85 L 74.61 71.32 L 72.78 68.85 L 71.12 67.33 L 65.25 62.08 L 62.24 58.91 L 60.16 56.08 L 58.65 52.30 L 57.48 47.60 L 56.95 44.75 L 56.66 42.20 L 56.85 40.10 L 57.75 38.66 L 58.49 37.80 L 59.70 37.44 L 60.69 37.21 L 61.97 37.40 L 63.46 37.96 L 70.62 45.42 L 76.81 51.69 L 77.88 52.49 L 80.19 53.96 L 82.31 54.82 L 84.06 55.30 L 86.22 55.62 L 88.23 55.83 L 90.54 55.85 L 94.17 55.37 L 96.94 54.55 L 99.88 53.00 L 102.85 50.79 L 104.52 48.78 L 106.29 46.53 L 111.05 39.68 L 116.30 31.62 L 122.24 22.81 L 122.62 21.78 L 122.71 20.56 L 122.35 19.36 L 121.66 18.06 L 120.35 16.93 L 117.23 15.44 L 112.71 13.93 L 103.52 10.76 L 101.73 10.32 L 99.44 10.00 L 94.82 10.46 L 90.77 11.09 L 81.91 12.83 L 78.97 13.74 L 73.12 15.98 L 70.24 17.14 L 63.36 20.54 L 60.63 22.24 L 58.30 24.15 L 55.94 26.16 L 54.01 28.24 L 52.29 30.68 L 50.72 33.79 L 49.46 37.12 L 47.48 43.90 L 45.32 52.43 L 43.89 60.47 L 41.42 69.05 L 39.84 75.50 L 38.46 79.97 L 38.00 83.21 L 37.91 87.63 L 38.18 92.86 L 38.81 96.77 L 39.88 101.34 L 41.73 107.91 L 47.13 128.72 L 49.96 139.20 Z" stroke="currentColor" stroke-width="3" stroke-linecap="round" stroke-linejoin="round"/>
</svg>