<svg xmlns="http://www.w3.org/2000/svg" viewBox="0 0 200 200" fill="none">
  <path d="M 109.97 148.60 L 100.07 121.71 L 99.51 121.26 L 99.02 121.20 L 96.76 121.88 L 96.15 121.74 L 95.60 121.49 L 95.18 120.96 L 94.95 120.22 L 95.35 118.14 L 97.01 113.30 L 97.19 112.60 L 97.22 111.20 L 96.57 107.38 L 94.35 95.31 L 94.16 92.86 L 93.70 92.05 L 91.40 91.21 L 90.32 90.57 L 89.46 89.89 L 88.31 88.18 L 87.69 86.47 L 87.59 84.39 L 87.90 82.78 L 88.39 81.84 L 89.97 79.60 L 90.55 78.38 L 90.82 77.11 L 90.65 75.17 L 89.83 71.89 L 88.83 70.43 L 88.20 69.94 L 86.68 68.96 L 85.92 68.43 L 85.35 67.84 L 84.93 66.35 L 85.05 60.04 L 85.28 58.67 L 86.75 56.92 L 87.90 56.18 L 90.63 55.27 L 91.41 54.88 L 92.36 53.47 L 92.87 50.68 L 93.33 48.46 L 94.39 45.30 L 95.17 43.34 L 95.74 40.08 L 95.93 37.88 L 95.83 35.40 L 95.47 25.62 L 94.67 12.98 L 94.36 12.17 L 93.57 11.14 L 92.57 10.50 L 91.03 10.00 L 89.48 10.23 L 88.45 10.72 L 87.41 11.38 L 86.54 12.90 L 86.11 14.99 L 86.21 16.86 L 86.61 18.38 L 88.93 22.15 L 90.18 23.93 L 91.21 26.53 L 91.61 28.16 L 91.90 30.45 L 91.82 32.23 L 91.59 34.29 L 90.82 36.46 L 89.92 38.30 L 88.70 40.50 L 87.71 42.62 L 87.27 44.94 L 87.30 46.52 L 87.30 47.74 L 86.83 48.67 L 86.11 49.46 L 84.99 50.05 L 82.58 50.71 L 80.88 52.05 L 80.09 53.25 L 79.79 54.28 L 79.40 56.32 L 79.30 58.66 L 79.30 60.24 L 79.46 62.01 L 79.77 63.90 L 80.61 66.27 L 82.79 70.62 L 84.27 73.96 L 85.04 76.80 L 85.37 79.33 L 85.26 81.76 L 85.11 83.25 L 85.14 86.45 L 85.34 87.36 L 85.56 88.83 L 86.49 91.46 L 87.33 93.13 L 88.46 94.91 L 90.31 97.64 L 91.55 99.71 L 92.49 101.92 L 93.47 105.24 L 93.78 107.70 L 93.94 110.46 L 93.86 112.99 L 93.54 115.29 L 92.96 118.37 L 92.61 119.44 L 92.28 120.41 L 92.35 121.29 L 92.62 122.19 L 93.34 123.17 L 94.12 123.82 L 95.96 125.21 L 96.87 126.25 L 97.71 127.68 L 98.94 132.95 L 98.95 134.31 L 98.40 135.88 L 97.21 137.96 L 93.27 145.10 L 92.32 147.31 L 91.56 149.86 L 91.28 151.66 L 91.16 153.29 L 91.50 157.02 L 92.53 160.73 L 93.19 162.99 L 93.87 165.16 L 94.75 167.86 L 96.10 170.73 L 98.09 174.11 L 99.49 175.97 L 101.25 178.11 L 103.72 180.74 L 106.91 183.38 L 109.90 185.26 L 116.17 189.33 L 117.90 190.00 L 119.05 189.70 L 120.06 189.11 L 120.70 188.07 L 120.64 186.98 L 119.00 180.17 L 115.85 166.09 L 114.21 160.70 L 112.69 156.24 L 109.97 148.60 Z" stroke="currentColor" stroke-width="3" stroke-linecap="round" stroke-linejoin="round"/>
</svg>