<svg xmlns="http://www.w3.org/2000/svg" viewBox="0 0 200 200" fill="none">
  <path d="M 155.62 169.80 L 161.88 164.11 L 163.21 162.92 L 164.16 161.62 L 164.48 160.07 L 163.67 158.68 L 162.35 157.80 L 159.98 157.07 L 157.72 156.77 L 155.55 156.88 L 153.51 157.37 L 149.06 159.53 L 144.94 162.83 L 143.35 163.68 L 139.89 164.31 L 138.02 164.28 L 134.64 163.36 L 132.77 162.52 L 131.03 161.32 L 128.15 158.17 L 126.98 155.51 L 126.18 76.48 L 126.79 75.29 L 127.96 74.68 L 148.14 74.99 L 154.19 74.96 L 157.35 74.37 L 158.62 73.48 L 162.19 70.67 L 163.80 68.84 L 165.02 66.87 L 165.91 65.14 L 166.44 62.89 L 166.81 60.21 L 166.71 58.64 L 165.60 58.08 L 162.68 57.81 L 161.66 57.29 L 160.78 56.20 L 160.43 54.49 L 160.60 53.24 L 163.43 49.29 L 163.92 48.23 L 165.10 46.41 L 164.67 44.50 L 162.37 43.28 L 158.10 42.89 L 126.11 42.23 L 114.30 40.84 L 110.39 39.32 L 106.08 35.73 L 102.38 29.76 L 96.72 19.00 L 93.08 15.91 L 89.31 13.81 L 85.48 12.67 L 79.48 11.10 L 72.67 10.00 L 71.74 10.18 L 70.85 10.74 L 70.16 12.62 L 69.45 13.90 L 62.39 25.05 L 57.99 31.69 L 55.71 35.05 L 53.35 38.29 L 49.30 43.98 L 45.13 51.64 L 42.92 57.42 L 40.50 64.08 L 38.87 68.84 L 37.66 73.58 L 36.69 78.38 L 35.65 85.43 L 35.40 89.53 L 35.13 94.43 L 35.24 107.69 L 35.31 115.26 L 35.34 121.00 L 33.98 151.02 L 33.57 166.42 L 33.56 174.11 L 33.19 183.37 L 33.83 184.11 L 34.71 184.36 L 36.82 184.33 L 38.37 184.81 L 41.87 187.64 L 44.92 189.05 L 48.99 189.69 L 66.70 190.00 L 89.87 189.78 L 108.93 189.87 L 118.24 189.76 L 125.87 188.91 L 133.84 187.68 L 135.91 186.91 L 137.59 186.07 L 138.93 185.04 L 155.62 169.80 Z" stroke="currentColor" stroke-width="3" stroke-linecap="round" stroke-linejoin="round"/>
</svg>