<svg xmlns="http://www.w3.org/2000/svg" viewBox="0 0 200 200" fill="none">
  <path d="M 45.19 118.95 L 24.29 84.41 L 16.09 71.01 L 15.54 68.50 L 15.90 65.90 L 16.94 63.88 L 18.58 62.40 L 21.10 61.06 L 23.99 60.65 L 26.71 61.10 L 47.57 72.53 L 49.56 73.03 L 52.19 73.11 L 55.22 72.31 L 57.66 70.25 L 59.05 68.00 L 59.39 65.72 L 58.92 49.31 L 59.22 47.07 L 59.96 45.15 L 60.96 43.30 L 62.40 41.78 L 92.15 12.02 L 93.79 10.81 L 96.33 10.18 L 98.77 10.00 L 101.25 10.58 L 103.19 11.61 L 112.02 19.23 L 113.01 20.84 L 113.46 23.05 L 113.36 24.98 L 112.77 26.86 L 111.48 28.56 L 92.15 47.72 L 91.31 49.12 L 91.26 50.64 L 91.70 51.98 L 92.65 52.97 L 94.05 53.77 L 95.97 54.00 L 97.32 53.64 L 99.06 52.93 L 132.83 40.73 L 135.04 40.51 L 137.76 40.86 L 140.05 41.80 L 141.84 43.42 L 142.94 45.48 L 143.37 47.52 L 143.33 49.31 L 142.68 51.02 L 141.30 52.99 L 140.15 53.97 L 137.52 55.91 L 134.59 58.94 L 132.15 61.99 L 130.12 65.25 L 128.48 69.06 L 127.54 71.66 L 126.54 76.23 L 125.70 78.18 L 124.26 79.83 L 122.72 80.87 L 120.64 81.72 L 101.45 85.93 L 99.77 86.83 L 98.48 87.86 L 97.74 89.56 L 97.44 91.22 L 97.78 93.71 L 99.86 96.18 L 103.44 99.44 L 108.96 103.24 L 114.72 106.19 L 120.58 108.08 L 126.43 109.20 L 132.15 109.65 L 138.40 109.11 L 167.08 106.23 L 169.71 106.74 L 172.75 108.04 L 175.08 109.65 L 177.26 112.33 L 183.91 123.50 L 184.46 125.43 L 184.46 127.18 L 184.16 129.01 L 182.78 131.34 L 172.45 146.38 L 171.15 147.51 L 169.22 148.31 L 167.23 148.85 L 164.55 148.75 L 131.57 142.75 L 129.22 142.75 L 126.89 143.37 L 124.91 144.59 L 123.52 146.15 L 100.56 186.46 L 98.71 188.39 L 96.63 189.55 L 93.60 190.00 L 91.31 189.77 L 89.08 188.92 L 86.80 187.13 L 45.19 118.95 Z" stroke="currentColor" stroke-width="3" stroke-linecap="round" stroke-linejoin="round"/>
</svg>