<svg xmlns="http://www.w3.org/2000/svg" viewBox="0 0 200 200" fill="none">
  <path d="M 119.55 180.10 L 95.24 183.36 L 93.78 184.03 L 93.55 188.24 L 92.83 188.91 L 88.90 189.46 L 84.34 190.00 L 80.33 189.82 L 75.36 188.24 L 71.83 185.68 L 53.16 162.91 L 43.06 150.96 L 40.03 146.23 L 38.18 143.01 L 37.30 141.05 L 35.21 135.02 L 34.25 128.55 L 34.57 123.68 L 35.45 118.43 L 37.86 113.49 L 40.26 110.44 L 41.22 109.41 L 41.22 108.56 L 39.86 107.95 L 38.74 107.10 L 38.90 106.06 L 39.86 105.02 L 40.42 103.80 L 40.10 101.37 L 38.42 96.91 L 36.98 93.87 L 34.89 91.37 L 33.13 89.54 L 32.17 87.41 L 29.69 79.72 L 28.32 76.86 L 26.64 75.46 L 26.56 74.48 L 28.00 73.63 L 30.57 72.14 L 31.93 70.43 L 31.93 68.72 L 31.05 66.65 L 27.03 61.04 L 26.72 59.49 L 26.56 48.89 L 26.96 44.74 L 28.56 43.00 L 32.08 40.93 L 36.01 38.49 L 37.54 36.17 L 37.45 33.36 L 36.98 31.69 L 32.17 22.86 L 31.69 19.93 L 32.01 16.94 L 33.69 14.26 L 36.25 11.95 L 40.10 10.48 L 44.27 10.00 L 48.76 10.18 L 53.16 11.88 L 57.41 14.75 L 59.97 18.04 L 60.70 21.88 L 60.38 25.36 L 58.62 29.01 L 55.97 32.52 L 54.60 34.22 L 41.38 46.77 L 34.81 54.46 L 34.25 55.81 L 34.73 57.69 L 37.54 59.70 L 46.99 64.73 L 50.84 67.29 L 52.52 69.42 L 53.33 71.61 L 53.33 82.50 L 53.80 84.64 L 55.33 87.13 L 57.57 89.72 L 59.97 91.73 L 63.26 93.26 L 67.11 94.23 L 84.82 94.23 L 87.86 93.20 L 90.98 91.85 L 92.51 91.55 L 93.87 92.47 L 98.68 97.95 L 104.69 105.97 L 105.89 107.98 L 107.41 109.69 L 110.22 111.03 L 112.94 111.39 L 123.35 110.36 L 128.33 110.42 L 133.38 111.75 L 136.74 114.28 L 138.35 116.61 L 144.11 141.15 L 144.67 144.16 L 145.40 145.62 L 147.48 145.81 L 150.52 144.10 L 152.36 143.73 L 164.70 142.58 L 165.83 143.49 L 168.24 149.65 L 170.80 157.72 L 173.20 168.45 L 173.44 171.26 L 171.44 173.03 L 168.31 173.58 L 119.55 180.10 Z" stroke="currentColor" stroke-width="3" stroke-linecap="round" stroke-linejoin="round"/>
</svg>