<svg xmlns="http://www.w3.org/2000/svg" viewBox="0 0 200 200" fill="none">
  <path d="M 42.87 41.13 L 87.54 46.97 L 102.02 48.77 L 117.28 50.06 L 124.63 50.93 L 143.61 53.45 L 176.68 58.09 L 183.50 59.38 L 184.66 59.81 L 185.28 60.31 L 185.59 61.11 L 185.67 61.84 L 184.43 69.56 L 184.58 70.24 L 184.97 70.86 L 188.46 72.64 L 189.46 73.13 L 190.00 73.93 L 190.00 74.68 L 189.31 79.49 L 188.22 83.81 L 186.52 88.00 L 184.58 91.77 L 169.40 116.07 L 151.20 143.03 L 150.03 144.87 L 149.88 145.98 L 150.11 146.91 L 150.66 147.59 L 156.08 150.74 L 156.62 151.23 L 156.70 152.03 L 156.32 152.71 L 155.39 153.51 L 145.23 160.73 L 144.22 161.16 L 143.37 161.28 L 142.60 161.03 L 140.74 159.92 L 140.43 159.19 L 140.43 157.71 L 145.08 123.53 L 145.01 122.48 L 144.54 121.50 L 143.85 120.69 L 142.76 119.96 L 137.34 116.80 L 135.40 115.14 L 134.24 114.03 L 133.08 111.93 L 131.83 108.85 L 130.60 107.00 L 129.20 105.71 L 127.66 104.78 L 125.56 103.91 L 108.83 101.50 L 106.97 100.96 L 105.82 100.03 L 105.27 99.41 L 104.81 98.55 L 102.64 92.20 L 101.94 90.96 L 100.86 89.79 L 98.15 88.25 L 85.76 81.95 L 82.18 80.54 L 77.00 79.36 L 35.48 73.68 L 34.63 73.38 L 34.17 72.89 L 33.78 72.09 L 33.70 71.04 L 33.01 60.98 L 32.15 54.02 L 31.84 53.22 L 31.23 52.65 L 30.38 52.29 L 29.29 52.41 L 28.12 53.40 L 26.65 55.49 L 25.79 56.11 L 24.79 56.48 L 23.64 56.42 L 22.31 55.86 L 20.77 55.18 L 19.29 54.75 L 12.25 54.02 L 11.09 53.65 L 10.54 53.22 L 10.08 52.41 L 10.00 51.61 L 10.46 49.70 L 11.47 47.17 L 12.79 45.06 L 14.72 42.54 L 16.97 40.81 L 19.84 39.45 L 22.47 38.78 L 25.02 38.72 L 28.74 39.15 L 42.87 41.13 Z" stroke="currentColor" stroke-width="3" stroke-linecap="round" stroke-linejoin="round"/>
</svg>