<svg xmlns="http://www.w3.org/2000/svg" viewBox="0 0 200 200" fill="none">
  <path d="M 98.83 85.78 L 123.42 99.59 L 123.84 100.61 L 123.66 101.55 L 122.93 102.81 L 117.70 106.31 L 116.07 107.89 L 115.53 110.74 L 116.07 113.76 L 115.55 117.49 L 114.29 119.88 L 109.55 123.29 L 104.14 124.97 L 100.63 125.68 L 95.45 125.79 L 91.39 125.13 L 86.63 123.21 L 62.49 110.19 L 59.03 108.31 L 57.26 108.04 L 55.22 107.89 L 53.18 108.13 L 50.59 108.86 L 48.41 109.97 L 46.18 111.58 L 43.86 112.97 L 40.81 113.43 L 38.07 113.20 L 35.12 111.92 L 32.35 109.69 L 29.83 107.45 L 27.01 106.19 L 24.09 105.66 L 20.58 106.21 L 17.36 107.12 L 14.65 108.28 L 12.65 109.94 L 10.74 112.63 L 10.00 115.48 L 10.08 117.86 L 10.67 119.47 L 11.64 120.57 L 13.62 121.54 L 16.00 121.54 L 18.95 120.96 L 22.25 120.97 L 29.04 122.26 L 41.48 124.53 L 54.34 124.19 L 73.97 123.46 L 79.40 125.01 L 86.12 127.16 L 91.52 128.88 L 98.78 130.95 L 106.33 132.09 L 113.92 132.17 L 121.89 131.00 L 129.17 128.70 L 145.79 123.24 L 155.44 119.94 L 160.09 118.08 L 171.97 112.40 L 178.37 108.72 L 179.66 107.16 L 179.24 105.87 L 178.08 104.86 L 175.14 103.27 L 173.09 101.89 L 171.97 99.87 L 171.74 97.78 L 172.39 95.22 L 173.98 93.80 L 175.83 93.13 L 181.33 93.43 L 184.08 93.09 L 185.29 92.38 L 187.14 90.77 L 190.00 86.16 L 189.81 85.16 L 188.42 84.65 L 187.16 83.81 L 187.11 82.10 L 189.39 75.50 L 189.21 74.37 L 188.18 73.62 L 182.45 73.15 L 99.72 70.51 L 33.75 67.83 L 31.82 68.28 L 31.42 69.65 L 32.08 71.35 L 34.37 73.17 L 37.92 75.60 L 41.75 77.45 L 44.86 78.16 L 47.61 77.95 L 50.96 76.86 L 58.79 73.56 L 63.18 72.50 L 68.57 72.08 L 73.89 72.75 L 78.91 74.63 L 98.83 85.78 Z" stroke="currentColor" stroke-width="3" stroke-linecap="round" stroke-linejoin="round"/>
</svg>