<svg xmlns="http://www.w3.org/2000/svg" viewBox="0 0 200 200" fill="none">
  <path d="M 127.58 47.54 L 127.19 45.77 L 127.74 44.17 L 129.15 41.99 L 130.49 40.45 L 134.66 36.63 L 155.86 15.83 L 157.33 14.34 L 159.52 13.89 L 162.17 14.44 L 164.02 15.54 L 165.36 17.27 L 165.64 19.22 L 165.70 20.83 L 165.91 22.15 L 167.02 23.73 L 168.29 24.93 L 170.68 27.35 L 172.29 29.49 L 172.92 30.79 L 173.73 31.56 L 175.00 31.81 L 176.48 31.50 L 177.58 30.67 L 177.92 29.49 L 177.19 28.49 L 175.32 27.50 L 169.79 22.43 L 169.00 21.21 L 168.98 20.03 L 169.42 19.12 L 170.01 18.27 L 172.60 17.31 L 176.62 16.56 L 178.80 15.97 L 181.05 15.32 L 184.16 14.54 L 187.54 14.36 L 189.33 15.01 L 190.00 17.02 L 189.37 28.74 L 186.87 40.81 L 184.27 48.48 L 181.38 53.95 L 176.42 60.21 L 170.71 65.50 L 162.45 72.02 L 150.62 77.25 L 143.58 79.75 L 130.00 84.34 L 120.87 86.62 L 107.39 88.92 L 98.71 89.90 L 94.11 90.53 L 93.32 91.50 L 93.26 92.35 L 92.98 93.33 L 92.39 94.29 L 90.45 94.79 L 87.69 95.12 L 84.64 93.86 L 82.97 93.78 L 58.68 96.08 L 46.62 97.34 L 35.52 98.60 L 32.45 98.94 L 30.41 99.19 L 28.93 100.30 L 26.61 103.60 L 24.64 106.81 L 23.07 110.02 L 22.38 112.30 L 21.65 116.27 L 21.59 123.08 L 21.69 124.78 L 22.38 125.94 L 23.76 127.06 L 26.81 128.67 L 28.85 130.03 L 29.74 131.49 L 30.09 133.59 L 33.56 148.07 L 34.44 150.61 L 34.72 151.42 L 34.64 152.50 L 33.75 153.37 L 31.80 154.35 L 29.86 155.04 L 29.40 156.02 L 29.78 158.09 L 32.00 162.79 L 34.03 166.34 L 36.09 169.13 L 39.64 172.79 L 44.08 176.04 L 47.35 177.40 L 51.01 178.64 L 52.84 179.23 L 53.77 179.97 L 54.83 182.28 L 54.32 183.50 L 52.66 184.20 L 45.32 185.60 L 41.23 186.07 L 38.53 186.11 L 36.13 185.86 L 34.62 185.03 L 33.69 184.34 L 33.65 182.73 L 33.30 181.43 L 32.59 179.84 L 28.46 176.16 L 25.43 172.63 L 23.07 170.00 L 20.57 165.00 L 15.04 151.09 L 13.52 146.60 L 12.46 141.80 L 11.08 134.79 L 10.00 125.68 L 10.00 119.74 L 10.35 115.19 L 11.04 110.47 L 12.26 107.18 L 13.64 104.23 L 14.31 102.42 L 14.64 100.83 L 14.49 98.41 L 14.43 96.91 L 15.10 96.02 L 16.81 95.43 L 20.98 94.71 L 24.70 94.59 L 29.80 94.14 L 36.90 93.49 L 43.20 92.68 L 59.22 89.28 L 68.17 87.50 L 76.38 86.54 L 82.00 86.21 L 86.39 85.06 L 99.08 80.71 L 104.65 79.06 L 112.78 77.74 L 119.57 77.05 L 126.04 76.27 L 129.69 75.34 L 134.11 73.34 L 137.95 70.44 L 140.11 68.00 L 141.08 65.44 L 140.92 62.77 L 140.29 60.25 L 138.91 57.47 L 137.08 54.84 L 134.21 53.22 L 131.46 51.35 L 130.12 50.51 L 128.88 49.60 L 127.58 47.54 Z" stroke="currentColor" stroke-width="3" stroke-linecap="round" stroke-linejoin="round"/>
</svg>