<svg xmlns="http://www.w3.org/2000/svg" viewBox="0 0 200 200" fill="none">
  <path d="M 128.18 140.34 L 131.33 150.62 L 133.68 158.20 L 134.99 163.81 L 135.16 168.44 L 133.13 180.84 L 133.50 182.33 L 134.92 183.25 L 140.18 184.88 L 141.22 185.43 L 141.72 186.50 L 141.53 187.59 L 140.79 188.67 L 139.37 189.51 L 137.58 190.00 L 135.23 190.00 L 132.64 189.60 L 126.45 188.38 L 122.25 187.39 L 118.24 185.86 L 114.40 184.09 L 105.56 178.77 L 100.31 175.33 L 99.32 174.25 L 99.08 173.37 L 99.14 172.48 L 100.06 170.50 L 100.37 169.28 L 100.18 168.29 L 99.57 167.46 L 89.49 158.84 L 87.70 157.77 L 84.30 156.08 L 82.26 154.90 L 80.04 152.84 L 78.80 150.62 L 77.93 148.36 L 77.63 146.54 L 77.69 133.10 L 77.69 131.97 L 77.01 131.09 L 75.77 130.40 L 73.61 130.05 L 70.70 130.54 L 69.03 130.69 L 67.00 130.29 L 65.26 129.51 L 64.03 128.67 L 62.92 127.64 L 62.24 126.70 L 61.31 124.83 L 60.50 122.52 L 59.58 119.66 L 59.46 117.25 L 58.28 106.96 L 58.40 101.40 L 58.59 96.92 L 59.15 92.00 L 59.89 88.12 L 60.63 85.06 L 65.82 70.40 L 66.68 69.06 L 67.93 68.53 L 69.22 68.33 L 71.13 68.22 L 72.62 67.88 L 74.05 67.30 L 75.59 66.16 L 76.76 64.83 L 77.82 63.01 L 82.94 48.40 L 84.98 40.47 L 85.66 34.90 L 85.97 29.19 L 85.91 27.32 L 85.60 25.36 L 81.83 12.36 L 81.70 11.58 L 81.83 10.89 L 82.69 10.20 L 84.36 10.00 L 85.42 10.25 L 86.16 10.84 L 86.40 11.33 L 86.84 14.23 L 87.45 18.67 L 87.70 20.14 L 88.51 21.77 L 91.22 25.65 L 93.64 29.10 L 105.81 51.15 L 107.23 54.00 L 125.27 114.55 L 126.02 117.05 L 125.84 117.89 L 125.03 118.53 L 123.60 118.92 L 122.69 119.57 L 122.31 120.30 L 122.37 121.24 L 125.65 131.72 L 128.18 140.34 Z" stroke="currentColor" stroke-width="3" stroke-linecap="round" stroke-linejoin="round"/>
</svg>