<svg xmlns="http://www.w3.org/2000/svg" viewBox="0 0 200 200" fill="none">
  <path d="M 30.30 124.32 L 34.62 88.73 L 36.59 73.81 L 36.80 73.20 L 37.41 72.85 L 38.17 72.77 L 39.10 72.85 L 39.98 72.90 L 40.79 72.85 L 41.34 72.55 L 41.78 72.11 L 41.89 71.73 L 41.89 71.29 L 38.82 63.15 L 38.39 60.94 L 38.22 58.94 L 38.45 56.76 L 39.59 46.15 L 40.03 44.41 L 40.58 42.80 L 41.40 41.06 L 42.49 39.19 L 43.74 37.36 L 45.60 35.31 L 47.51 33.62 L 50.08 31.70 L 52.87 30.01 L 55.98 28.45 L 59.31 27.10 L 63.07 25.79 L 66.85 24.88 L 71.00 24.05 L 75.70 23.48 L 80.51 23.18 L 99.24 22.05 L 122.18 21.09 L 123.55 21.01 L 124.26 20.74 L 124.86 20.31 L 125.61 18.43 L 125.94 17.92 L 126.49 17.57 L 127.42 17.35 L 130.53 16.96 L 133.92 16.44 L 138.73 15.35 L 160.19 10.30 L 162.04 10.00 L 163.80 10.00 L 165.49 10.22 L 166.69 10.56 L 167.84 11.04 L 168.93 11.57 L 170.29 12.61 L 171.06 13.43 L 171.60 14.44 L 171.88 15.56 L 172.80 22.70 L 174.56 34.88 L 174.50 35.97 L 174.22 36.67 L 173.79 37.28 L 173.08 37.71 L 171.77 38.32 L 157.73 43.63 L 146.32 48.10 L 139.21 50.84 L 135.77 52.24 L 131.90 54.15 L 129.11 55.63 L 126.71 57.11 L 114.25 64.59 L 105.41 70.20 L 86.73 81.68 L 75.48 88.60 L 73.94 89.69 L 73.35 90.38 L 73.23 91.08 L 73.23 91.91 L 73.62 93.73 L 73.73 94.73 L 73.73 96.17 L 73.57 96.95 L 73.12 97.95 L 72.47 99.12 L 71.38 100.30 L 69.90 101.52 L 68.21 102.52 L 66.85 103.26 L 66.14 103.83 L 65.59 104.60 L 65.10 106.04 L 63.95 112.61 L 62.75 119.62 L 53.47 182.42 L 53.08 184.68 L 52.70 185.74 L 51.94 186.82 L 50.89 187.69 L 49.69 188.48 L 48.01 189.25 L 46.15 189.73 L 44.02 190.00 L 42.21 189.91 L 40.52 189.65 L 38.56 189.12 L 36.65 188.51 L 35.22 187.82 L 33.53 186.91 L 31.62 185.47 L 30.31 184.17 L 29.16 182.77 L 28.17 181.12 L 27.25 179.30 L 26.54 177.42 L 26.21 175.82 L 25.83 173.38 L 25.78 170.94 L 25.72 168.64 L 25.55 164.07 L 25.44 160.06 L 25.55 155.72 L 26.26 150.02 L 28.94 132.01 L 30.30 124.32 Z" stroke="currentColor" stroke-width="3" stroke-linecap="round" stroke-linejoin="round"/>
</svg>