<svg xmlns="http://www.w3.org/2000/svg" viewBox="0 0 200 200" fill="none">
  <path d="M 57.75 153.31 L 44.19 156.22 L 41.72 156.41 L 38.75 156.41 L 36.10 155.69 L 34.28 155.03 L 31.88 153.72 L 30.15 152.39 L 28.83 150.89 L 27.84 149.11 L 27.01 147.33 L 26.93 145.43 L 27.01 143.25 L 27.35 141.61 L 27.92 140.03 L 29.00 138.65 L 30.49 137.46 L 33.80 136.22 L 36.85 136.22 L 39.24 137.00 L 40.23 137.92 L 40.90 138.91 L 40.97 140.29 L 40.48 142.26 L 39.49 145.22 L 39.24 146.48 L 39.83 147.73 L 41.22 149.04 L 43.62 149.83 L 46.26 149.36 L 47.67 148.58 L 48.58 147.27 L 49.40 145.95 L 50.22 144.17 L 50.73 142.21 L 50.89 139.96 L 50.47 138.06 L 49.15 135.95 L 48.24 134.64 L 45.52 131.81 L 38.25 125.16 L 32.64 118.91 L 28.00 114.64 L 22.23 109.04 L 20.41 106.41 L 19.57 104.51 L 13.63 89.57 L 11.73 85.09 L 10.08 80.68 L 10.00 79.57 L 10.74 78.65 L 12.23 78.12 L 14.79 78.52 L 17.44 80.03 L 19.66 81.61 L 21.89 83.64 L 25.03 86.41 L 27.75 89.83 L 32.55 97.00 L 38.99 106.67 L 41.05 109.36 L 43.12 111.47 L 45.44 113.38 L 48.16 114.64 L 51.06 115.56 L 54.03 116.08 L 57.49 116.08 L 60.55 115.56 L 63.52 114.64 L 66.50 113.05 L 69.32 111.08 L 71.54 108.85 L 73.94 104.44 L 77.65 97.73 L 79.23 95.69 L 80.87 94.31 L 82.94 93.26 L 85.99 92.13 L 88.88 91.93 L 91.37 92.13 L 93.60 92.85 L 95.58 93.97 L 96.98 94.96 L 98.22 96.15 L 104.33 106.28 L 105.83 107.66 L 107.64 108.12 L 109.37 107.86 L 110.95 107.33 L 117.06 100.42 L 117.89 99.04 L 117.89 97.79 L 117.38 96.54 L 102.44 74.84 L 93.10 61.94 L 82.85 47.47 L 81.46 47.08 L 80.05 47.40 L 78.72 48.39 L 77.16 49.90 L 75.67 51.47 L 74.27 52.27 L 72.53 52.73 L 70.71 52.46 L 68.90 51.08 L 66.75 49.04 L 65.67 47.40 L 65.02 45.89 L 64.68 43.64 L 64.85 41.61 L 65.27 39.64 L 66.01 37.79 L 67.99 35.56 L 69.89 34.31 L 72.53 33.31 L 75.35 32.80 L 77.58 32.60 L 80.30 32.73 L 83.85 33.45 L 86.16 34.31 L 88.56 35.42 L 91.86 38.06 L 94.76 41.55 L 126.15 82.60 L 145.73 107.86 L 155.89 121.02 L 164.81 132.92 L 176.62 147.98 L 189.26 163.78 L 190.00 165.16 L 189.92 166.48 L 188.84 167.40 L 187.11 167.27 L 183.55 165.82 L 181.49 164.56 L 179.18 163.13 L 154.98 134.89 L 153.91 134.38 L 151.93 134.24 L 121.60 140.36 L 57.75 153.31 Z" stroke="currentColor" stroke-width="3" stroke-linecap="round" stroke-linejoin="round"/>
</svg>