<svg xmlns="http://www.w3.org/2000/svg" viewBox="0 0 200 200" fill="none">
  <path d="M 116.64 11.70 L 148.49 10.00 L 154.15 10.21 L 158.51 11.10 L 161.34 12.25 L 164.73 14.67 L 166.86 17.42 L 168.59 20.89 L 171.02 26.77 L 173.50 32.55 L 174.95 38.93 L 175.57 42.95 L 176.40 52.68 L 176.75 60.99 L 177.30 64.23 L 179.30 67.27 L 183.10 71.51 L 184.70 73.92 L 184.63 75.74 L 183.93 77.88 L 178.55 86.63 L 178.19 90.16 L 179.02 92.68 L 180.96 94.82 L 186.28 99.39 L 187.52 101.49 L 187.66 103.96 L 186.76 106.21 L 183.52 108.69 L 179.37 110.51 L 173.70 112.54 L 169.29 114.14 L 166.17 116.01 L 162.59 119.69 L 155.54 127.83 L 116.78 171.68 L 104.07 183.84 L 100.48 186.81 L 97.58 188.40 L 94.20 189.45 L 90.67 190.00 L 87.43 189.84 L 83.84 189.33 L 80.80 188.52 L 78.11 187.20 L 75.82 185.10 L 75.13 184.28 L 71.67 179.66 L 67.81 175.53 L 63.67 172.12 L 60.83 170.03 L 57.66 167.88 L 52.06 164.36 L 39.56 155.17 L 38.31 154.68 L 36.58 154.57 L 34.86 155.07 L 29.61 157.99 L 27.82 158.37 L 26.02 158.26 L 24.50 157.87 L 22.35 156.61 L 20.08 155.17 L 17.24 152.86 L 15.18 150.39 L 13.72 147.86 L 12.48 145.00 L 12.34 143.84 L 12.69 142.69 L 13.72 141.59 L 16.20 139.16 L 54.34 108.58 L 62.91 101.81 L 64.70 100.54 L 67.81 99.28 L 71.53 98.73 L 74.58 98.68 L 78.79 98.90 L 90.53 99.99 L 94.41 100.27 L 98.41 100.38 L 102.98 99.99 L 107.12 99.34 L 110.84 98.07 L 135.16 86.19 L 136.75 85.53 L 138.69 84.93 L 140.68 84.81 L 142.20 85.15 L 143.59 85.92 L 144.42 86.79 L 148.56 95.71 L 149.81 96.97 L 151.53 97.74 L 153.53 97.80 L 155.75 97.19 L 157.13 96.10 L 158.03 94.94 L 159.75 92.02 L 161.13 89.55 L 162.17 87.12 L 162.72 84.76 L 163.07 82.28 L 162.79 79.70 L 161.96 78.54 L 159.82 77.06 L 81.00 32.83 L 78.86 32.00 L 75.89 31.07 L 72.23 30.74 L 68.43 31.01 L 64.57 32.16 L 63.18 33.21 L 62.21 34.75 L 60.62 42.78 L 59.72 44.43 L 57.80 45.76 L 54.89 46.63 L 51.72 46.91 L 48.19 46.35 L 45.71 45.32 L 44.19 44.10 L 43.01 42.68 L 42.80 41.14 L 43.29 39.48 L 45.22 36.78 L 55.37 24.41 L 58.63 22.04 L 61.80 20.06 L 66.36 17.64 L 70.09 16.05 L 74.79 14.83 L 78.86 14.01 L 87.50 13.35 L 116.64 11.70 Z" stroke="currentColor" stroke-width="3" stroke-linecap="round" stroke-linejoin="round"/>
</svg>