<svg xmlns="http://www.w3.org/2000/svg" viewBox="0 0 200 200" fill="none">
  <path d="M 186.07 86.07 L 189.65 113.43 L 190.00 116.97 L 189.65 118.72 L 188.68 120.24 L 184.25 127.02 L 183.45 128.12 L 182.61 128.53 L 181.55 128.65 L 179.11 128.53 L 167.87 127.91 L 150.55 126.07 L 148.35 125.49 L 146.97 124.65 L 145.87 123.46 L 144.97 121.08 L 144.84 118.73 L 144.91 117.33 L 144.46 116.60 L 142.04 116.44 L 139.54 116.38 L 126.76 115.65 L 90.78 113.74 L 86.43 113.22 L 83.37 112.39 L 80.24 110.84 L 67.48 99.63 L 62.02 94.97 L 61.11 94.24 L 59.81 94.03 L 58.18 94.33 L 56.97 95.14 L 56.17 95.92 L 53.86 102.95 L 52.64 108.21 L 49.59 124.13 L 43.31 156.18 L 42.96 156.85 L 42.50 157.44 L 41.63 158.07 L 40.59 158.31 L 39.32 158.28 L 38.73 158.04 L 37.26 156.18 L 35.79 154.10 L 34.70 151.73 L 33.53 150.57 L 27.98 146.13 L 25.23 143.59 L 23.50 141.92 L 22.44 140.42 L 21.36 136.77 L 21.52 135.06 L 21.83 133.76 L 22.58 132.25 L 22.19 131.30 L 20.79 130.82 L 18.21 129.94 L 16.00 128.53 L 13.29 126.62 L 11.19 124.78 L 10.43 123.22 L 10.08 121.04 L 10.00 119.12 L 12.13 115.50 L 20.71 100.15 L 31.75 80.32 L 33.71 76.73 L 35.54 75.04 L 36.30 74.42 L 38.82 73.92 L 41.04 75.29 L 43.85 77.25 L 55.43 89.39 L 56.46 89.92 L 57.32 89.71 L 58.11 88.20 L 62.68 79.27 L 68.78 68.94 L 69.90 67.27 L 70.97 66.88 L 72.92 67.75 L 74.04 68.41 L 106.51 87.19 L 111.81 89.22 L 115.49 89.90 L 161.28 92.60 L 163.06 92.25 L 165.37 91.18 L 167.27 89.83 L 168.49 87.61 L 168.80 85.49 L 168.45 80.47 L 167.13 73.64 L 163.16 62.61 L 162.08 60.26 L 161.35 58.32 L 160.96 55.94 L 160.96 52.89 L 161.63 46.10 L 162.79 43.43 L 164.39 41.82 L 165.73 41.69 L 166.95 42.01 L 168.29 43.57 L 169.02 44.52 L 169.72 45.48 L 170.98 46.55 L 173.88 47.97 L 176.31 48.65 L 179.36 48.35 L 180.93 48.98 L 181.73 50.10 L 182.19 51.89 L 183.42 66.95 L 186.07 86.07 Z" stroke="currentColor" stroke-width="3" stroke-linecap="round" stroke-linejoin="round"/>
</svg>