<svg xmlns="http://www.w3.org/2000/svg" viewBox="0 0 200 200" fill="none">
  <path d="M 65.43 29.09 L 49.88 11.79 L 49.72 11.01 L 50.41 10.32 L 51.84 10.00 L 53.44 10.28 L 58.56 11.92 L 70.98 15.72 L 76.95 18.06 L 83.16 20.99 L 88.74 23.96 L 93.15 27.03 L 116.89 45.06 L 118.56 46.07 L 121.43 47.21 L 126.55 49.31 L 128.79 50.73 L 130.68 52.65 L 131.89 54.40 L 132.70 56.36 L 133.39 59.98 L 133.79 61.26 L 134.48 62.45 L 135.80 64.00 L 147.53 75.96 L 154.99 83.55 L 157.06 86.38 L 158.38 88.49 L 159.94 91.88 L 169.30 112.70 L 183.67 144.33 L 187.00 151.93 L 187.18 153.16 L 186.83 154.53 L 185.68 155.63 L 184.01 156.55 L 181.89 157.28 L 180.63 158.06 L 179.76 158.97 L 179.07 160.35 L 179.19 161.72 L 182.06 169.91 L 182.00 171.33 L 181.55 172.61 L 179.99 174.03 L 178.15 174.99 L 145.40 189.41 L 143.33 189.96 L 141.26 190.00 L 139.08 189.59 L 137.29 188.77 L 136.03 187.58 L 135.52 186.39 L 135.40 185.11 L 136.03 183.91 L 137.18 182.68 L 138.85 181.82 L 153.16 176.18 L 154.71 175.17 L 155.57 174.16 L 155.92 172.98 L 155.74 171.51 L 149.82 160.44 L 147.98 155.91 L 143.79 141.95 L 141.72 133.94 L 141.26 132.57 L 140.23 131.10 L 138.85 129.91 L 136.78 128.63 L 134.48 127.67 L 131.95 127.03 L 129.30 126.75 L 120.74 126.38 L 117.47 126.62 L 114.48 127.16 L 111.44 127.99 L 108.96 129.05 L 106.09 130.73 L 104.25 132.42 L 102.24 134.85 L 94.14 147.76 L 86.89 159.25 L 85.34 161.04 L 83.50 162.27 L 80.98 163.18 L 78.45 163.64 L 76.10 163.69 L 73.74 163.37 L 71.73 162.78 L 68.39 161.40 L 66.20 160.80 L 63.56 160.53 L 60.92 160.72 L 58.50 161.21 L 56.43 162.13 L 55.11 163.18 L 53.50 164.60 L 40.23 177.87 L 38.91 178.65 L 37.30 179.20 L 35.35 179.48 L 33.16 179.39 L 31.27 178.83 L 22.30 174.67 L 17.01 172.20 L 15.69 171.11 L 14.32 169.78 L 13.51 168.49 L 12.94 166.98 L 12.82 165.43 L 13.22 163.55 L 14.14 161.95 L 15.34 159.89 L 17.13 156.77 L 20.23 153.25 L 23.63 150.18 L 28.79 146.48 L 37.41 141.12 L 42.47 138.61 L 46.78 137.01 L 68.97 129.64 L 72.18 128.36 L 75.23 126.84 L 78.05 125.15 L 80.46 123.32 L 82.70 121.39 L 85.69 117.88 L 88.11 114.49 L 93.62 106.67 L 94.59 104.97 L 95.17 103.14 L 95.28 100.85 L 94.71 98.79 L 91.44 93.43 L 87.87 87.53 L 83.56 80.16 L 82.47 77.42 L 81.44 74.17 L 80.80 71.15 L 80.40 68.59 L 79.13 56.73 L 79.37 55.95 L 80.12 55.40 L 81.26 55.22 L 83.21 55.40 L 85.23 55.40 L 86.61 55.22 L 87.52 54.58 L 87.76 53.85 L 87.18 52.89 L 80.12 45.52 L 65.43 29.09 Z" stroke="currentColor" stroke-width="3" stroke-linecap="round" stroke-linejoin="round"/>
</svg>