<svg xmlns="http://www.w3.org/2000/svg" viewBox="0 0 200 200" fill="none">
  <path d="M 129.97 130.54 L 117.57 132.78 L 86.86 138.46 L 84.74 138.56 L 83.33 137.70 L 80.95 134.57 L 73.43 127.66 L 65.26 119.78 L 58.85 112.82 L 52.99 105.96 L 43.42 91.78 L 40.78 88.00 L 36.73 83.55 L 30.50 78.37 L 20.15 71.32 L 10.58 64.81 L 10.00 63.94 L 10.07 63.02 L 11.16 62.56 L 13.67 62.26 L 21.51 61.64 L 29.35 61.44 L 37.45 61.49 L 45.16 62.00 L 54.09 62.98 L 81.40 66.56 L 93.86 67.68 L 120.79 68.45 L 122.98 68.96 L 124.33 69.98 L 124.84 71.11 L 124.71 72.29 L 124.00 73.41 L 121.31 76.03 L 119.18 77.76 L 115.26 80.12 L 110.96 81.71 L 105.75 82.88 L 100.09 83.50 L 94.19 83.24 L 71.24 80.73 L 68.16 80.99 L 65.65 81.60 L 63.47 82.63 L 61.54 84.01 L 60.32 85.65 L 59.67 87.44 L 59.55 89.08 L 59.93 90.87 L 60.64 92.19 L 71.76 105.40 L 73.62 106.79 L 76.58 108.06 L 79.98 108.58 L 83.26 108.37 L 86.73 107.39 L 88.86 106.22 L 91.04 104.38 L 93.09 102.58 L 95.28 101.05 L 97.91 99.83 L 100.99 98.59 L 105.30 97.51 L 109.80 96.85 L 145.40 96.34 L 172.78 95.89 L 175.67 95.93 L 178.49 96.60 L 180.81 97.77 L 182.67 99.36 L 184.08 101.45 L 189.67 114.26 L 190.00 115.43 L 189.67 116.30 L 189.03 116.97 L 186.85 118.14 L 183.96 119.31 L 180.23 120.60 L 175.99 121.82 L 170.98 122.95 L 129.97 130.54 Z" stroke="currentColor" stroke-width="3" stroke-linecap="round" stroke-linejoin="round"/>
</svg>