<svg xmlns="http://www.w3.org/2000/svg" viewBox="0 0 200 200" fill="none">
  <path d="M 163.71 102.69 L 174.82 113.66 L 187.81 126.72 L 189.00 128.10 L 189.66 129.54 L 190.00 130.84 L 189.97 132.12 L 189.78 133.10 L 188.27 136.94 L 187.55 137.94 L 186.50 138.71 L 185.62 139.12 L 184.04 139.44 L 182.60 139.39 L 181.01 138.96 L 179.54 138.00 L 178.04 136.14 L 170.38 126.49 L 168.93 125.48 L 167.68 125.15 L 165.80 124.88 L 161.84 124.86 L 159.84 124.39 L 158.44 123.57 L 157.37 122.51 L 156.87 121.47 L 155.09 115.91 L 154.34 114.49 L 153.15 113.27 L 151.77 112.44 L 150.03 111.77 L 148.25 111.49 L 143.64 111.43 L 141.51 111.10 L 140.05 110.53 L 138.55 109.57 L 137.44 108.24 L 136.76 106.88 L 136.45 105.60 L 136.47 104.38 L 136.76 103.34 L 139.02 98.27 L 139.36 97.24 L 139.42 95.88 L 139.18 94.98 L 138.58 93.69 L 137.69 92.58 L 135.99 91.59 L 133.92 90.67 L 131.47 89.66 L 129.31 88.95 L 127.70 88.58 L 125.44 88.27 L 122.88 88.23 L 120.86 88.30 L 119.18 88.67 L 117.81 89.15 L 115.69 89.89 L 113.45 90.92 L 110.88 92.65 L 108.87 94.40 L 100.42 102.81 L 99.98 103.29 L 98.63 103.55 L 86.29 104.46 L 85.50 104.38 L 84.65 103.91 L 84.31 103.12 L 84.16 102.45 L 82.28 96.11 L 79.78 84.22 L 79.30 82.04 L 79.18 80.93 L 79.32 79.79 L 79.58 78.61 L 80.15 77.39 L 80.80 76.17 L 82.79 72.42 L 83.00 71.85 L 82.85 71.32 L 82.47 70.83 L 81.83 70.47 L 81.08 70.28 L 80.36 70.32 L 79.54 70.77 L 78.86 71.58 L 75.96 75.70 L 73.60 78.80 L 72.05 80.65 L 70.78 81.86 L 69.68 82.63 L 67.80 83.85 L 65.82 84.73 L 63.74 85.24 L 60.12 85.67 L 56.70 85.79 L 54.12 85.63 L 51.04 85.08 L 47.68 84.30 L 43.91 83.14 L 41.53 82.24 L 39.44 81.21 L 37.52 80.03 L 35.48 78.53 L 33.38 76.62 L 31.99 74.95 L 30.74 73.13 L 27.66 66.39 L 26.01 63.45 L 25.17 62.26 L 24.04 61.39 L 22.54 60.84 L 20.76 60.56 L 18.63 60.61 L 16.65 60.84 L 14.71 61.19 L 12.83 61.83 L 11.29 62.79 L 10.36 64.02 L 10.00 65.21 L 10.11 66.72 L 10.53 67.84 L 11.14 68.97 L 12.19 69.92 L 14.25 71.51 L 16.84 73.28 L 19.37 75.09 L 22.58 77.09 L 26.25 79.14 L 30.00 81.07 L 34.19 82.71 L 37.95 84.28 L 41.80 85.49 L 48.05 87.26 L 54.94 89.46 L 63.27 91.86 L 71.54 94.00 L 77.26 95.63 L 84.65 97.95 L 86.34 98.30 L 88.02 98.34 L 89.81 98.07 L 91.54 97.67 L 94.67 96.68 L 97.54 95.50 L 99.95 94.28 L 102.45 92.69 L 107.11 89.10 L 113.50 84.21 L 115.27 83.01 L 116.54 82.28 L 117.70 81.65 L 118.52 81.25 L 118.96 81.22 L 119.55 81.42 L 120.99 82.47 L 122.02 83.18 L 122.87 83.39 L 123.67 83.26 L 124.60 82.75 L 126.14 81.60 L 127.88 80.58 L 129.81 79.91 L 132.17 79.74 L 134.38 79.84 L 136.71 80.24 L 139.03 80.98 L 141.01 81.76 L 143.49 83.14 L 145.72 84.84 L 148.00 86.94 L 163.71 102.69 Z" stroke="currentColor" stroke-width="3" stroke-linecap="round" stroke-linejoin="round"/>
</svg>