<svg xmlns="http://www.w3.org/2000/svg" viewBox="0 0 200 200" fill="none">
  <path d="M 98.85 110.84 L 126.36 107.45 L 127.81 107.01 L 128.90 105.97 L 129.66 104.54 L 129.79 103.13 L 129.39 101.64 L 124.98 84.60 L 124.23 82.74 L 123.19 81.37 L 121.47 80.06 L 120.03 79.41 L 112.24 77.20 L 109.64 76.00 L 107.72 74.81 L 105.97 73.31 L 104.66 71.90 L 103.68 70.73 L 102.50 68.15 L 102.07 66.18 L 102.03 64.05 L 102.51 61.51 L 103.39 58.85 L 105.33 52.08 L 106.02 47.06 L 106.09 43.49 L 105.74 40.40 L 103.59 24.50 L 102.16 14.49 L 101.88 13.32 L 101.62 12.38 L 100.79 11.42 L 99.38 10.36 L 98.54 10.09 L 97.56 10.00 L 96.63 10.14 L 95.63 10.50 L 94.89 11.19 L 94.43 11.82 L 93.86 12.89 L 92.16 17.52 L 90.53 24.21 L 76.77 61.55 L 71.40 76.00 L 68.43 84.07 L 66.20 90.32 L 63.87 98.08 L 58.96 112.38 L 54.27 125.25 L 53.73 126.51 L 53.59 127.45 L 53.73 127.99 L 54.25 128.54 L 55.44 128.57 L 59.82 128.10 L 60.78 128.10 L 61.56 128.95 L 64.05 137.55 L 64.56 139.16 L 66.13 142.73 L 67.56 145.28 L 70.64 149.36 L 74.14 153.08 L 78.56 156.53 L 97.28 169.98 L 101.55 173.13 L 104.90 175.31 L 109.39 177.95 L 113.24 179.97 L 119.45 182.70 L 125.13 185.03 L 133.58 188.66 L 137.20 189.99 L 139.23 190.00 L 141.38 189.60 L 143.34 188.57 L 144.39 187.65 L 145.09 186.75 L 145.78 185.41 L 146.18 184.11 L 146.41 182.90 L 146.23 180.90 L 145.78 179.45 L 145.16 178.04 L 144.24 176.79 L 142.94 175.65 L 141.32 174.66 L 139.61 173.98 L 137.13 173.65 L 117.42 172.21 L 114.99 171.92 L 113.94 171.71 L 112.84 171.35 L 102.25 165.33 L 101.19 164.60 L 100.46 163.76 L 99.70 161.97 L 97.23 151.48 L 97.40 150.65 L 97.97 150.10 L 98.83 149.87 L 107.61 148.68 L 108.65 148.28 L 109.31 147.97 L 110.01 147.32 L 110.70 146.12 L 110.87 144.65 L 110.89 137.38 L 110.25 136.14 L 109.46 135.40 L 108.26 134.98 L 106.62 134.65 L 105.19 134.48 L 103.29 134.42 L 101.41 134.55 L 83.07 137.12 L 81.49 137.22 L 79.48 137.15 L 77.51 136.84 L 76.17 136.43 L 75.27 135.69 L 74.34 134.78 L 69.31 126.46 L 66.71 122.64 L 66.16 121.51 L 65.78 120.01 L 65.65 118.73 L 65.63 117.20 L 65.91 116.15 L 66.58 115.40 L 67.42 115.01 L 69.33 114.70 L 98.85 110.84 Z" stroke="currentColor" stroke-width="3" stroke-linecap="round" stroke-linejoin="round"/>
</svg>