<svg xmlns="http://www.w3.org/2000/svg" viewBox="0 0 200 200" fill="none">
  <path d="M 31.99 95.96 L 52.16 66.20 L 59.83 55.27 L 61.57 54.07 L 63.92 53.39 L 66.48 53.19 L 68.86 53.49 L 71.09 54.42 L 72.65 55.59 L 73.48 57.05 L 73.54 58.67 L 71.32 61.82 L 64.92 71.33 L 62.86 75.75 L 62.03 80.36 L 62.47 84.69 L 61.80 86.45 L 60.23 87.63 L 57.09 89.19 L 53.71 90.01 L 44.37 92.23 L 41.97 93.34 L 41.31 94.97 L 41.23 96.44 L 42.19 97.94 L 44.00 99.01 L 46.27 99.57 L 49.74 99.52 L 66.84 96.19 L 74.79 95.29 L 81.64 95.15 L 87.70 95.42 L 93.43 96.02 L 97.52 96.78 L 104.20 97.65 L 110.38 97.98 L 114.75 97.42 L 120.02 96.58 L 126.35 94.63 L 133.80 91.67 L 138.84 90.21 L 143.32 89.42 L 149.25 89.01 L 153.91 89.08 L 173.36 89.81 L 177.84 90.43 L 182.01 91.70 L 184.96 93.25 L 186.86 94.90 L 188.71 96.78 L 189.69 98.96 L 190.00 101.26 L 189.65 103.51 L 188.57 105.80 L 186.23 108.28 L 177.29 115.73 L 174.00 119.03 L 166.53 128.87 L 162.95 129.64 L 158.52 129.96 L 154.29 129.83 L 149.30 129.31 L 144.12 128.23 L 138.57 126.61 L 133.08 124.22 L 129.69 121.92 L 129.07 120.52 L 129.61 119.03 L 131.72 117.17 L 134.74 115.99 L 139.18 115.00 L 146.76 114.27 L 154.06 113.15 L 160.72 111.59 L 164.41 110.01 L 165.80 108.11 L 165.99 106.03 L 164.80 103.97 L 161.72 102.10 L 158.95 101.51 L 144.58 100.44 L 130.11 100.47 L 114.74 101.60 L 101.74 103.60 L 93.70 105.14 L 84.82 107.15 L 76.34 109.35 L 69.42 111.85 L 66.88 112.52 L 65.07 112.31 L 63.38 110.87 L 61.57 108.79 L 59.08 107.84 L 55.88 107.77 L 52.77 108.66 L 51.11 110.03 L 50.34 111.50 L 51.11 114.49 L 58.07 139.31 L 58.22 140.97 L 57.45 142.66 L 56.22 144.10 L 55.03 145.02 L 52.07 146.24 L 48.92 146.68 L 35.54 146.81 L 32.82 146.73 L 28.84 146.35 L 24.73 145.53 L 21.35 144.59 L 16.85 142.43 L 13.92 140.04 L 11.92 137.99 L 10.47 135.22 L 10.00 132.80 L 10.41 128.84 L 11.65 126.02 L 30.94 97.45 L 31.99 95.96 Z" stroke="currentColor" stroke-width="3" stroke-linecap="round" stroke-linejoin="round"/>
</svg>